<svg width="200" height="234" viewBox="0 0 200 234" fill="none" xmlns="http://www.w3.org/2000/svg">
<path d="M0 232.78V0H81.9896C107.466 0 128.845 5.56166 146.707 16.9816C164.276 28.1084 177.745 42.7488 186.531 60.6096C195.314 78.4704 200 97.2105 200 116.537C200 136.156 195.607 154.893 186.531 172.464C177.745 190.325 164.276 204.672 146.707 216.092C129.134 227.219 107.466 233.074 81.9896 233.074H15.2276C10.8345 232.78 0.293107 232.78 0 232.78Z" fill="#080808"/>
<path d="M33.0896 52.4138H116.252C123.279 52.4138 129.134 58.2686 129.134 65.2957C129.134 72.3228 123.279 78.181 116.252 78.181H33.0896V52.4138Z" fill="#3DDC97"/>
<path d="M33.0896 154.31H134.993C142.021 154.31 147.876 160.165 147.876 167.192C147.876 174.219 142.021 180.077 134.993 180.077H33.0896V154.31Z" fill="#F12A1F"/>
<path d="M33.0896 103.362H90.7758C97.8034 103.362 103.659 109.217 103.659 116.244C103.659 123.271 97.8034 129.129 90.7758 129.129H33.0896V103.362Z" fill="#FFB400"/>
</svg>
